<svg viewBox="0 0 330 200" xmlns="http://www.w3.org/2000/svg"><g><g><g><g><g><line x1="51.5625" y1="177" x2="46.5625" y2="177" style="visibility: inherit;" fill="rgb(0, 0, 0)" stroke="rgb(204, 204, 204)" stroke-width="1px"></line><line x1="51.5625" y1="164.35714285714286" x2="46.5625" y2="164.35714285714286" style="visibility: inherit;" fill="rgb(0, 0, 0)" stroke="rgb(204, 204, 204)" stroke-width="1px"></line><line x1="51.5625" y1="151.7142857142857" x2="46.5625" y2="151.7142857142857" style="visibility: inherit;" fill="rgb(0, 0, 0)" stroke="rgb(204, 204, 204)" stroke-width="1px"></line><line x1="51.5625" y1="139.07142857142856" x2="46.5625" y2="139.07142857142856" style="visibility: inherit;" fill="rgb(0, 0, 0)" stroke="rgb(204, 204, 204)" stroke-width="1px"></line><line x1="51.5625" y1="126.42857142857142" x2="46.5625" y2="126.42857142857142" style="visibility: inherit;" fill="rgb(0, 0, 0)" stroke="rgb(204, 204, 204)" stroke-width="1px"></line><line x1="51.5625" y1="113.78571428571428" x2="46.5625" y2="113.78571428571428" style="visibility: inherit;" fill="rgb(0, 0, 0)" stroke="rgb(204, 204, 204)" stroke-width="1px"></line><line x1="51.5625" y1="101.14285714285714" x2="46.5625" y2="101.14285714285714" style="visibility: inherit;" fill="rgb(0, 0, 0)" stroke="rgb(204, 204, 204)" stroke-width="1px"></line><line x1="51.5625" y1="88.5" x2="46.5625" y2="88.5" style="visibility: inherit;" fill="rgb(0, 0, 0)" stroke="rgb(204, 204, 204)" stroke-width="1px"></line><line x1="51.5625" y1="75.85714285714285" x2="46.5625" y2="75.85714285714285" style="visibility: inherit;" fill="rgb(0, 0, 0)" stroke="rgb(204, 204, 204)" stroke-width="1px"></line><line x1="51.5625" y1="63.21428571428571" x2="46.5625" y2="63.21428571428571" style="visibility: inherit;" fill="rgb(0, 0, 0)" stroke="rgb(204, 204, 204)" stroke-width="1px"></line><line x1="51.5625" y1="50.57142857142857" x2="46.5625" y2="50.57142857142857" style="visibility: inherit;" fill="rgb(0, 0, 0)" stroke="rgb(204, 204, 204)" stroke-width="1px"></line><line x1="51.5625" y1="37.92857142857141" x2="46.5625" y2="37.92857142857141" style="visibility: inherit;" fill="rgb(0, 0, 0)" stroke="rgb(204, 204, 204)" stroke-width="1px"></line><line x1="51.5625" y1="25.285714285714274" x2="46.5625" y2="25.285714285714274" style="visibility: inherit;" fill="rgb(0, 0, 0)" stroke="rgb(204, 204, 204)" stroke-width="1px"></line><line x1="51.5625" y1="12.642857142857117" x2="46.5625" y2="12.642857142857117" style="visibility: inherit;" fill="rgb(0, 0, 0)" stroke="rgb(204, 204, 204)" stroke-width="1px"></line><line x1="51.5625" y1="0" x2="46.5625" y2="0" style="visibility: inherit;" fill="rgb(0, 0, 0)" stroke="rgb(204, 204, 204)" stroke-width="1px"></line></g><g transform="translate(41.5625, 0)"><text x="0" y="177" dx="0em" dy="0.3em" style="text-anchor: end; visibility: hidden; font-family: Roboto, sans-serif; font-size: 12px; font-weight: 200;" fill="rgb(255, 255, 255)" stroke="none" stroke-width="1px">0</text><text x="0" y="164.35714285714286" dx="0em" dy="0.3em" style="text-anchor: end; visibility: inherit; font-family: Roboto, sans-serif; font-size: 12px; font-weight: 200;" fill="rgb(255, 255, 255)" stroke="none" stroke-width="1px">0.05</text><text x="0" y="151.7142857142857" dx="0em" dy="0.3em" style="text-anchor: end; visibility: hidden; font-family: Roboto, sans-serif; font-size: 12px; font-weight: 200;" fill="rgb(255, 255, 255)" stroke="none" stroke-width="1px">0.1</text><text x="0" y="139.07142857142856" dx="0em" dy="0.3em" style="text-anchor: end; visibility: inherit; font-family: Roboto, sans-serif; font-size: 12px; font-weight: 200;" fill="rgb(255, 255, 255)" stroke="none" stroke-width="1px">0.15</text><text x="0" y="126.42857142857142" dx="0em" dy="0.3em" style="text-anchor: end; visibility: hidden; font-family: Roboto, sans-serif; font-size: 12px; font-weight: 200;" fill="rgb(255, 255, 255)" stroke="none" stroke-width="1px">0.2</text><text x="0" y="113.78571428571428" dx="0em" dy="0.3em" style="text-anchor: end; visibility: inherit; font-family: Roboto, sans-serif; font-size: 12px; font-weight: 200;" fill="rgb(255, 255, 255)" stroke="none" stroke-width="1px">0.25</text><text x="0" y="101.14285714285714" dx="0em" dy="0.3em" style="text-anchor: end; visibility: hidden; font-family: Roboto, sans-serif; font-size: 12px; font-weight: 200;" fill="rgb(255, 255, 255)" stroke="none" stroke-width="1px">0.3</text><text x="0" y="88.5" dx="0em" dy="0.3em" style="text-anchor: end; visibility: inherit; font-family: Roboto, sans-serif; font-size: 12px; font-weight: 200;" fill="rgb(255, 255, 255)" stroke="none" stroke-width="1px">0.35</text><text x="0" y="75.85714285714285" dx="0em" dy="0.3em" style="text-anchor: end; visibility: hidden; font-family: Roboto, sans-serif; font-size: 12px; font-weight: 200;" fill="rgb(255, 255, 255)" stroke="none" stroke-width="1px">0.4</text><text x="0" y="63.21428571428571" dx="0em" dy="0.3em" style="text-anchor: end; visibility: inherit; font-family: Roboto, sans-serif; font-size: 12px; font-weight: 200;" fill="rgb(255, 255, 255)" stroke="none" stroke-width="1px">0.45</text><text x="0" y="50.57142857142857" dx="0em" dy="0.3em" style="text-anchor: end; visibility: hidden; font-family: Roboto, sans-serif; font-size: 12px; font-weight: 200;" fill="rgb(255, 255, 255)" stroke="none" stroke-width="1px">0.5</text><text x="0" y="37.92857142857141" dx="0em" dy="0.3em" style="text-anchor: end; visibility: inherit; font-family: Roboto, sans-serif; font-size: 12px; font-weight: 200;" fill="rgb(255, 255, 255)" stroke="none" stroke-width="1px">0.55</text><text x="0" y="25.285714285714274" dx="0em" dy="0.3em" style="text-anchor: end; visibility: hidden; font-family: Roboto, sans-serif; font-size: 12px; font-weight: 200;" fill="rgb(255, 255, 255)" stroke="none" stroke-width="1px">0.6</text><text x="0" y="12.642857142857117" dx="0em" dy="0.3em" style="text-anchor: end; visibility: inherit; font-family: Roboto, sans-serif; font-size: 12px; font-weight: 200;" fill="rgb(255, 255, 255)" stroke="none" stroke-width="1px">0.65</text><text x="0" y="0" dx="0em" dy="0.3em" style="text-anchor: end; visibility: hidden; font-family: Roboto, sans-serif; font-size: 12px; font-weight: 200;" fill="rgb(255, 255, 255)" stroke="none" stroke-width="1px">0.7</text></g><line x1="51.5625" y1="0" x2="51.5625" y2="177" fill="rgb(0, 0, 0)" stroke="rgb(204, 204, 204)" stroke-width="1px"></line></g></g><g transform="translate(51, 0)" clip-path="url(#clip_0)"><clipPath id="clip_0"><rect width="278" height="177"></rect></clipPath><g><g><g><line x1="0" y1="0" x2="0" y2="177" fill="rgb(0, 0, 0)" stroke="rgb(189, 189, 189)" stroke-width="1px" opacity="0.25"></line><line x1="25.3125" y1="0" x2="25.3125" y2="177" fill="rgb(0, 0, 0)" stroke="rgb(189, 189, 189)" stroke-width="1px" opacity="0.25"></line><line x1="50.625" y1="0" x2="50.625" y2="177" fill="rgb(0, 0, 0)" stroke="rgb(189, 189, 189)" stroke-width="1px" opacity="0.25"></line><line x1="75.9375" y1="0" x2="75.9375" y2="177" fill="rgb(0, 0, 0)" stroke="rgb(189, 189, 189)" stroke-width="1px" opacity="0.25"></line><line x1="101.25" y1="0" x2="101.25" y2="177" fill="rgb(0, 0, 0)" stroke="rgb(189, 189, 189)" stroke-width="1px" opacity="0.25"></line><line x1="126.5625" y1="0" x2="126.5625" y2="177" fill="rgb(0, 0, 0)" stroke="rgb(189, 189, 189)" stroke-width="1px" opacity="0.25"></line><line x1="151.875" y1="0" x2="151.875" y2="177" fill="rgb(0, 0, 0)" stroke="rgb(189, 189, 189)" stroke-width="1px" opacity="0.25"></line><line x1="177.1875" y1="0" x2="177.1875" y2="177" fill="rgb(0, 0, 0)" stroke="rgb(189, 189, 189)" stroke-width="1px" opacity="0.25"></line><line x1="202.5" y1="0" x2="202.5" y2="177" fill="rgb(0, 0, 0)" stroke="rgb(189, 189, 189)" stroke-width="1px" opacity="0.25"></line><line x1="227.8125" y1="0" x2="227.8125" y2="177" fill="rgb(0, 0, 0)" stroke="rgb(189, 189, 189)" stroke-width="1px" opacity="0.25"></line><line x1="253.125" y1="0" x2="253.125" y2="177" fill="rgb(0, 0, 0)" stroke="rgb(189, 189, 189)" stroke-width="1px" opacity="0.25"></line><line x1="278.4375" y1="0" x2="278.4375" y2="177" fill="rgb(0, 0, 0)" stroke="rgb(189, 189, 189)" stroke-width="1px" opacity="0.25"></line></g><g><line x1="0" y1="177" x2="278.4375" y2="177" fill="rgb(0, 0, 0)" stroke="rgb(189, 189, 189)" stroke-width="1px" opacity="0.25"></line><line x1="0" y1="164.35714285714286" x2="278.4375" y2="164.35714285714286" fill="rgb(0, 0, 0)" stroke="rgb(189, 189, 189)" stroke-width="1px" opacity="0.25"></line><line x1="0" y1="151.7142857142857" x2="278.4375" y2="151.7142857142857" fill="rgb(0, 0, 0)" stroke="rgb(189, 189, 189)" stroke-width="1px" opacity="0.25"></line><line x1="0" y1="139.07142857142856" x2="278.4375" y2="139.07142857142856" fill="rgb(0, 0, 0)" stroke="rgb(189, 189, 189)" stroke-width="1px" opacity="0.25"></line><line x1="0" y1="126.42857142857142" x2="278.4375" y2="126.42857142857142" fill="rgb(0, 0, 0)" stroke="rgb(189, 189, 189)" stroke-width="1px" opacity="0.25"></line><line x1="0" y1="113.78571428571428" x2="278.4375" y2="113.78571428571428" fill="rgb(0, 0, 0)" stroke="rgb(189, 189, 189)" stroke-width="1px" opacity="0.25"></line><line x1="0" y1="101.14285714285714" x2="278.4375" y2="101.14285714285714" fill="rgb(0, 0, 0)" stroke="rgb(189, 189, 189)" stroke-width="1px" opacity="0.25"></line><line x1="0" y1="88.5" x2="278.4375" y2="88.5" fill="rgb(0, 0, 0)" stroke="rgb(189, 189, 189)" stroke-width="1px" opacity="0.25"></line><line x1="0" y1="75.85714285714285" x2="278.4375" y2="75.85714285714285" fill="rgb(0, 0, 0)" stroke="rgb(189, 189, 189)" stroke-width="1px" opacity="0.25"></line><line x1="0" y1="63.21428571428571" x2="278.4375" y2="63.21428571428571" fill="rgb(0, 0, 0)" stroke="rgb(189, 189, 189)" stroke-width="1px" opacity="0.25"></line><line x1="0" y1="50.57142857142857" x2="278.4375" y2="50.57142857142857" fill="rgb(0, 0, 0)" stroke="rgb(189, 189, 189)" stroke-width="1px" opacity="0.25"></line><line x1="0" y1="37.92857142857141" x2="278.4375" y2="37.92857142857141" fill="rgb(0, 0, 0)" stroke="rgb(189, 189, 189)" stroke-width="1px" opacity="0.25"></line><line x1="0" y1="25.285714285714274" x2="278.4375" y2="25.285714285714274" fill="rgb(0, 0, 0)" stroke="rgb(189, 189, 189)" stroke-width="1px" opacity="0.25"></line><line x1="0" y1="12.642857142857117" x2="278.4375" y2="12.642857142857117" fill="rgb(0, 0, 0)" stroke="rgb(189, 189, 189)" stroke-width="1px" opacity="0.25"></line><line x1="0" y1="0" x2="278.4375" y2="0" fill="rgb(0, 0, 0)" stroke="rgb(189, 189, 189)" stroke-width="1px" opacity="0.25"></line></g></g></g><g><g><line x1="0" y1="177" x2="278.4375" y2="177" fill="rgb(0, 0, 0)" stroke="rgb(153, 153, 153)" stroke-width="1.5px"></line></g></g><g><g><line x1="25.3125" y1="0" x2="25.3125" y2="177" fill="rgb(0, 0, 0)" stroke="rgb(153, 153, 153)" stroke-width="1.5px"></line></g></g><g><g><g><g><g><path stroke="rgb(238, 51, 119)" stroke-width="2px" d="M27.84375,137.8189133661134L30.375,127.39964793249965L32.90625,115.96481743402799L35.43749999999999,107.1143812950888L37.96875,99.12074681750147L40.5,89.47019292277966L43.03125,83.23984888253962L45.5625,77.79896652753372L48.09375,74.22427326367229L50.625,69.88160729282801L53.15625,65.08900919803772L55.6875,61.46339824431512L58.21874999999999,59.463598360502786L60.75,57.95219306549626L63.28125,56.76116890393978L65.8125,54.31728839397161L68.34375,52.79329410752213L70.87499999999999,50.586017071690385L73.40625,49.31740537653828L75.9375,46.496703529342284L78.46875,44.45487579741851L81,43.74727212133725L83.53125,41.464769964414906L86.0625,42.45170211413782L88.59375,42.101630241948634L91.125,41.50391296699685L93.65625,40.31620138156843L96.1875,39.18210457986905L98.71875,38.40801094227224L101.25,37.66614355628921L103.78125,37.780282990998074L106.3125,35.375069600342265L108.84375,34.35575719751273L111.375,34.65350334862304L113.90625,33.38283116943716L116.43749999999999,32.91204254762338L118.96875,31.65859356389896L121.5,31.474440914615702L124.03125,30.048439935127487L126.5625,30.646355085402202L129.09375,29.993549967123542L131.625,28.77071203872844L134.15625,28.84304302983754L136.6875,29.382135921276127L139.21875,27.606848625858174L141.74999999999997,25.71742412007308L144.28125,24.479390512058355L146.8125,24.2992180986913L149.34375,23.476377780307025L151.875,23.09406373717483L154.40625,23.88247513152119L156.9375,23.27515147382585L159.46875,23.08354855586934L162,23.161061408748854L164.53125,23.36198527288568L167.0625,22.390799187510776L169.59375,21.205434100987535L172.125,21.779961316937644L174.65625,20.200341553694837L177.1875,19.713545376781685L179.71875,20.672314465307245L182.25,19.651381685209383L184.78125000000003,18.977300316700305L187.3125,19.634919208651176L189.84375,18.959856957755584L192.375,17.53231146283952L194.90625,17.770804119481394L197.4375,17.200410760012375" style="fill: none;" fill="none"></path></g><g><path stroke="rgb(204, 51, 17)" stroke-width="2px" d="M27.84375,138.88877227050918L30.375,114.75379985837L32.90625,100.3186549500022L35.43749999999999,88.28392490542674L37.96875,79.69501512882563L40.5,71.15678834283112L43.03125,66.558771088271L45.5625,60.37327719351849L48.09375,57.214780411030446L50.625,53.93202486633168L53.15625,51.70713726312795L55.6875,46.488437559410556L58.21874999999999,45.1469036787234L60.75,41.45523062916107L63.28125,40.18123759012058L65.8125,34.09519093749635L68.34375,29.09290901867922L70.87499999999999,27.84816968196197L73.40625,28.386881932547954L75.9375,25.353442852246047L78.46875,24.627041441202213L81,23.232568907766392L83.53125,22.77987274359787L86.0625,21.6480225386971L88.59375,20.224082168548783L91.125,17.363470650489667" style="fill: none;" fill="none"></path></g><g><path stroke="rgb(0, 153, 136)" stroke-width="2px" d="M27.84375,137.25895963822092L30.375,118.93076650212917L32.90625,104.03396104558564L35.43749999999999,93.56980955558477L37.96875,85.09106623863778L40.5,75.61871399609316L43.03125,69.05225408569547L45.5625,65.12262324335465L48.09375,60.2050343633899L50.625,56.31564344667953L53.15625,52.40313174823169L55.6875,49.20147374451841L58.21874999999999,46.11182395794649L60.75,44.68202744661366L63.28125,39.89504100966754L65.8125,37.968162359048655L68.34375,35.10552866367031L70.87499999999999,35.21245827974496L73.40625,33.38371729831163L75.9375,33.50848021247201L78.46875,32.70947261047432L81,31.413442548746954L83.53125,28.006019688547415L86.0625,26.43494985884738L88.59375,27.152752271168033L91.125,23.859370735638414L93.65625,23.96625950985859L96.1875,23.075777887586806L98.71875,23.568338367460658L101.25,21.001044016766063L103.78125,20.908426397828915L106.3125,18.46222665907086L108.84375,16.934992755617778L111.375,16.403698135903227L113.90625,14.158276300184228L116.43749999999999,14.029122762017721L118.96875,12.422600852435899L121.5,11.506192955710162L124.03125,12.337948977532273L126.5625,12.619678161953043L129.09375,11.28538574698408L131.625,11.769194107169172L134.15625,9.64892566708238" style="fill: none;" fill="none"></path></g><g><path stroke="rgb(51, 187, 238)" stroke-width="2px" d="M27.84375,160.79922777414322L30.375,155.53690499705928L32.90625,146.61320780673805L35.43749999999999,140.25702924187442L37.96875,135.24765212657348L40.5,131.8260773234218L43.03125,127.61634291062214L45.5625,126.09389612808378L48.09375,122.95527153135995L50.625,121.09821608571966L53.15625,117.8528864152646L55.6875,114.58441501339541L58.21874999999999,111.44667850461039L60.75,107.25156800063844L63.28125,105.26409957516283L65.8125,103.56740046754696L68.34375,101.25718435073983L70.87499999999999,98.251534229919L73.40625,96.70998999574515L75.9375,95.4955480386925L78.46875,93.79067220502091L81,91.27790704954522L83.53125,90.00821017295166L86.0625,90.34784106481183L88.59375,89.23767287882072L91.125,87.93930405413624L93.65625,86.48323430679861L96.1875,86.8678651808265L98.71875,87.94168407555935L101.25,86.48339447058898L103.78125,85.30359456280004L106.3125,84.70574844351417L108.84375,85.17063585465976L111.375,82.96640950837542L113.90625,82.01757060258362L116.43749999999999,81.08487928942564L118.96875,79.78803799988934L121.5,78.05306129245152L124.03125,78.82426463377064L126.5625,76.5725533554777L129.09375,76.83096562413753L131.625,76.34030641644458L134.15625,77.51412732865371L136.6875,75.85874465527273L139.21875,75.55079324579013L141.74999999999997,75.42566318234483L144.28125,74.76147793737103L146.8125,73.82892165611875L149.34375,72.5647820525466L151.875,72.11107034386276L154.40625,73.42171438107748" style="fill: none;" fill="none"></path></g><g><path stroke="rgb(204, 51, 17)" stroke-width="2px" d="M27.84375,156.46298028741563L30.375,150.52132086242946L32.90625,145.70642956031307L35.43749999999999,142.46370752578397L37.96875,137.56023385468436L40.5,130.05589916355746L43.03125,124.85958808613054L45.5625,120.20763661359443L48.09375,118.86611219498876L50.625,117.03519837653874L53.15625,114.44989163289289L55.6875,112.39326944290238L58.21874999999999,110.58763815038577L60.75,110.48890106892307L63.28125,109.08693032279511L65.8125,106.42472220372481L68.34375,103.79796431711823L70.87499999999999,103.28224748279997L73.40625,100.10123419832934L75.9375,98.64723472979269L78.46875,98.3148431070745L81,96.9101262368871L83.53125,95.8837300845735L86.0625,95.343939486399L88.59375,94.10350536502514L91.125,93.07626794448407L93.65625,92.64064264900182L96.1875,92.8260373540884L98.71875,93.79953677315507L101.25,92.82072844325184L103.78125,92.39030133356333L106.3125,92.47268424578039L108.84375,90.76015772393256L111.375,91.29509717038366L113.90625,91.39064905184229L116.43749999999999,90.51770333340318L118.96875,90.32325032934172L121.5,89.14863737648736L124.03125,88.87275212224912L126.5625,88.28922909293863L129.09375,88.24141259577871L131.625,88.89391954070992L134.15625,89.03298579227398L136.6875,87.04800629070525L139.21875,86.45180170883884L141.74999999999997,85.97816435951538L144.28125,86.45611554829635L146.8125,85.43575660595857L149.34375,84.27144351128895L151.875,84.23253346653388L154.40625,84.71256215249129L156.9375,83.31311538229465L159.46875,83.51776085314664L162,84.31316931769129L164.53125,84.92134318528396L167.0625,83.95505174265956L169.59375,82.90271425746705L172.125,82.90466576603463L174.65625,82.69913762340533L177.1875,82.88026423344196L179.71875,83.46049604554202L182.25,81.52754853467817L184.78125000000003,82.05643766957073L187.3125,81.9526715388152L189.84375,81.95787774470679L192.375,80.80767606380208L194.90625,79.77639748264923L197.4375,78.77540001806787L199.96875,79.45920644722683L202.5,78.89522289008423L205.03125,77.74846594622616L207.5625,78.34234195405772L210.09375,79.1584134086385L212.625,78.2706544355912L215.15625,78.7385902787493L217.6875,78.54702126551292L220.21875,78.315912056804L222.75,78.69783285191079L225.28125,78.60932717707577L227.8125,77.81362881482309L230.34375,78.40020665743066L232.87499999999997,77.86103820845636L235.40625,78.63589089965485L237.9375,77.85991795487884L240.46875,76.52786689945098L243,78.21436013633547L245.53125,77.61469799874659L248.0625,76.62846451673255L250.59375,77.73954622721111L253.125,78.75667904566701L255.65625,78.05819533489162L258.1875,77.32454564874011L260.71875,76.61883589449307" style="fill: none;" fill="none"></path></g></g></g></g><g opacity="0.2"><g><g><g><path stroke="rgb(238, 51, 119)" stroke-width="2px" d="M27.84375,137.8189133661134L30.375,121.1480886723314L32.90625,104.98738015549523L35.43749999999999,96.70626839569636L37.96875,88.6842576435634L40.5,76.12000268697739L43.03125,74.33035721949169L45.5625,69.86610782146454L48.09375,68.95229504789624L50.625,63.433254437787184L53.15625,57.94358056783676L55.6875,56.04471222843442L58.21874999999999,56.470428228378296L60.75,55.68804612330026L63.28125,54.976032665797625L65.8125,50.65319124289921L68.34375,50.50794758115495L70.87499999999999,47.27566194534302L73.40625,47.41468109403337L75.9375,42.26590858186994L78.46875,41.39224617821828L81,42.685889891215716L83.53125,38.04106179305485L86.0625,43.93208864756993L88.59375,41.57652492182595L91.125,40.607339603560305L93.65625,38.53463704245431L96.1875,37.48096111842564L98.71875,37.246871198926634L101.25,36.55334288733346L103.78125,37.95149210521153L106.3125,31.76724999291555L108.84375,32.826788714953814L111.375,35.10012255396161L113.90625,31.47682295526776L116.43749999999999,32.20585962704248L118.96875,29.77842010770524L121.5,31.19821194240025L124.03125,27.909438473837707L126.5625,31.54322780881608L129.09375,29.014342291014525L131.625,26.936455147606974L134.15625,28.951539516448975L136.6875,30.1907752582005L139.21875,24.943917683192648L141.74999999999997,22.883287361689963L144.28125,22.62234010015214L146.8125,24.02895947865076L149.34375,22.24211730275834L151.875,22.520592672484252L154.40625,25.06509222303117L156.9375,22.364165987287233L159.46875,22.796144178935446L162,23.27733068806783L164.53125,23.663371069090697L167.0625,20.93402005944932L169.59375,19.42738647120339L172.125,22.64175214086259L174.65625,17.830911908830913L177.1875,18.983351111412027L179.71875,22.11046809809548L182.25,18.119982515062603L184.78125000000003,17.96617826393671L187.3125,20.621347546577432L189.84375,17.94726358141217L192.375,15.390993220465516L194.90625,18.128543104444216L197.4375,16.344820720808837" style="fill: none;" fill="none"></path></g><g><path stroke="rgb(204, 51, 17)" stroke-width="2px" d="M27.84375,138.88877227050918L30.375,100.2728164110865L32.90625,86.4609158379691L35.43749999999999,74.131082373006L37.96875,68.48133452449525L40.5,59.34534693615777L43.03125,59.98353284597397L45.5625,51.35476771422795L48.09375,52.556611163275576L50.625,49.0575154679162L53.15625,48.389985425131655L55.6875,38.68878793716431L58.21874999999999,43.13898319857461L60.75,35.92495342663354L63.28125,38.271745562553406L65.8125,24.970413310187194L68.34375,21.591602938515788L70.87499999999999,25.98137671606881L73.40625,29.19486824103764L75.9375,20.803561500140585L78.46875,23.537479162216187L81,21.140905993325358L83.53125,22.10083743504114L86.0625,19.950260639190653L88.59375,18.08818173408506L91.125,13.072565572602397" style="fill: none;" fill="none"></path></g><g><path stroke="rgb(0, 153, 136)" stroke-width="2px" d="M27.84375,137.25895963822092L30.375,107.93385062047413L32.90625,89.73302780730384L35.43749999999999,81.26396740334374L37.96875,74.02121896403176L40.5,62.51504079784665L43.03125,59.66211135046822L45.5625,59.39318375076566L48.09375,52.9525459579059L50.625,50.540351220539634L53.15625,46.569850393704L55.6875,44.41641002041951L58.21874999999999,41.487437520708355L60.75,42.54013379982538L63.28125,32.72018827710832L65.8125,35.079203367233276L68.34375,30.81278949124471L70.87499999999999,35.37282555443898L73.40625,30.64088441644395L75.9375,33.69561317988804L78.46875,31.51100502695355L81,29.46944010257721L83.53125,22.89495267186845L86.0625,24.07836372511727L88.59375,28.229450787816713L91.125,18.919312477111795L93.65625,24.12659239768982L96.1875,21.74005682127816L98.71875,24.30717863355363L101.25,17.150103909628722L103.78125,20.76950000013623L106.3125,14.79292753764561L108.84375,14.644142082759299L111.375,15.606756244386943L113.90625,10.790143643106731L116.43749999999999,13.835392458098267L118.96875,10.012818012918743L121.5,10.131581119128622L124.03125,13.585583005632671L126.5625,13.042271937642761L129.09375,9.283947127205973L131.625,12.494906646864747L134.15625,6.468523008482788" style="fill: none;" fill="none"></path></g><g><path stroke="rgb(51, 187, 238)" stroke-width="2px" d="M27.84375,160.79922777414322L30.375,152.3795113308089L32.90625,138.0464585040297L35.43749999999999,132.78216324959482L37.96875,128.70740936483656L40.5,127.09280760373389L43.03125,121.59635534456797L45.5625,123.87415410365378L48.09375,118.32640989763397L50.625,118.34070517761367L53.15625,113.01432681083679L55.6875,109.6994947876249L58.21874999999999,106.75031899554389L60.75,100.96712090287889L63.28125,102.28523313147682L65.8125,101.02354844978876L68.34375,97.79283778156552L70.87499999999999,93.7438221829278L73.40625,94.39790848323277L75.9375,93.67399610791887L78.46875,91.23345195395606L81,87.5088419999395L83.53125,88.10368992601121L86.0625,90.85728337935038L88.59375,87.57242849043438L91.125,85.99175635405949L93.65625,84.29913341147558L96.1875,87.44481090136937L98.71875,89.55241142851966L101.25,84.29596086910793L103.78125,83.53389509235109L106.3125,83.80897938353674L108.84375,85.86796691587993L111.375,79.66007014683315L113.90625,80.59431228467396L116.43749999999999,79.6858423437391L118.96875,77.84277608564922L121.5,75.45059624740055L124.03125,79.98106964145387L126.5625,73.19498644556317L129.09375,77.21858402660915L131.625,75.60431760549545L134.15625,79.27485869612012L136.6875,73.37567064591816L139.21875,75.08886613164628L141.74999999999997,75.23796808719635L144.28125,73.76520006997244L146.8125,72.43008723429271L149.34375,70.66857264723096L151.875,71.43050278084618L154.40625,75.38768043688366" style="fill: none;" fill="none"></path></g><g><path stroke="rgb(204, 51, 17)" stroke-width="2px" d="M27.84375,156.46298028741563L30.375,146.95632520743777L32.90625,141.0841339102813L35.43749999999999,138.65026641317775L37.96875,131.15825862969672L40.5,119.67470272524017L43.03125,117.42878010443278L45.5625,113.42504670790262L48.09375,116.88762425524848L50.625,114.31650473816055L53.15625,110.59538005931037L55.6875,109.31952820505414L58.21874999999999,107.88508691106523L60.75,110.34098888295037L63.28125,106.98562216758728L65.8125,102.43328762054443L68.34375,99.85893904311317L70.87499999999999,102.50880317177091L73.40625,95.33019886698041L75.9375,96.46636842829841L78.46875,97.81627390214375L81,94.80309715441294L83.53125,94.34415612050465L86.0625,94.53425998347146L88.59375,92.24286299943924L91.125,91.53541619437081L93.65625,91.98720582042421L96.1875,93.10412912709373L98.71875,95.2597850050245L101.25,91.35251648936952L103.78125,91.74466081176485L106.3125,92.59625859771455L108.84375,88.19136814560208L111.375,92.09750630174364L113.90625,91.53397686992372L116.43749999999999,89.20828477825437L118.96875,90.03157082625798L121.5,87.38671795810971L124.03125,88.45892424242837L126.5625,87.41394455092293L129.09375,88.16968785013471L131.625,89.87267995732171L134.15625,89.2415851695197L136.6875,84.07053703921181L139.21875,85.55749483619417L141.74999999999997,85.26770833560398L144.28125,87.17304233142308L146.8125,83.90521819250924L149.34375,82.52497386932373L151.875,84.17416839940206L154.40625,85.43260518142155L156.9375,81.2139452270099L159.46875,83.82472905942372L162,85.5062820145062L164.53125,85.83360398667199L167.0625,82.50561457872391L169.59375,81.32420802967889L172.125,82.90759302888597L174.65625,82.39084540946142L177.1875,83.1519541484969L179.71875,84.33084376369203L182.25,78.62812726838247L184.78125000000003,82.84977137190954L187.3125,81.79702234268188L189.84375,81.96568705354417L192.375,79.08237354244504L194.90625,78.22947961091995L197.4375,77.27390382119587L199.96875,80.48491609096527L202.5,78.04924755437033L205.03125,76.0283305304391L207.5625,79.23315596580505L210.09375,80.38252059050969L212.625,76.93901597602026L215.15625,79.44049404348645L217.6875,78.25966774565832L220.21875,77.96924824374062L222.75,79.27071404457092L225.28125,78.47656866482326L227.8125,76.62008127144405L230.34375,79.28007342134202L232.87499999999997,77.05228553499494L235.40625,79.7981699364526L237.9375,76.69595853771482L240.46875,74.52979031630925L243,80.74409999166215L245.53125,76.7152047923633L248.0625,75.14911429371152L250.59375,79.40616879292897L253.125,80.28237827335084L255.65625,77.01046976872853L258.1875,76.22407111951283L260.71875,75.56027126312256" style="fill: none;" fill="none"></path></g></g></g></g></g></g><g transform="translate(51, 177)" clip-path="url(#clip_1)"><clipPath id="clip_1"><rect width="278" height="23"></rect></clipPath><g><g><line x1="0" y1="0" x2="0" y2="5" style="visibility: inherit;" fill="rgb(0, 0, 0)" stroke="rgb(204, 204, 204)" stroke-width="1px"></line><line x1="25.3125" y1="0" x2="25.3125" y2="5" style="visibility: inherit;" fill="rgb(0, 0, 0)" stroke="rgb(204, 204, 204)" stroke-width="1px"></line><line x1="50.625" y1="0" x2="50.625" y2="5" style="visibility: inherit;" fill="rgb(0, 0, 0)" stroke="rgb(204, 204, 204)" stroke-width="1px"></line><line x1="75.9375" y1="0" x2="75.9375" y2="5" style="visibility: inherit;" fill="rgb(0, 0, 0)" stroke="rgb(204, 204, 204)" stroke-width="1px"></line><line x1="101.25" y1="0" x2="101.25" y2="5" style="visibility: inherit;" fill="rgb(0, 0, 0)" stroke="rgb(204, 204, 204)" stroke-width="1px"></line><line x1="126.5625" y1="0" x2="126.5625" y2="5" style="visibility: inherit;" fill="rgb(0, 0, 0)" stroke="rgb(204, 204, 204)" stroke-width="1px"></line><line x1="151.875" y1="0" x2="151.875" y2="5" style="visibility: inherit;" fill="rgb(0, 0, 0)" stroke="rgb(204, 204, 204)" stroke-width="1px"></line><line x1="177.1875" y1="0" x2="177.1875" y2="5" style="visibility: inherit;" fill="rgb(0, 0, 0)" stroke="rgb(204, 204, 204)" stroke-width="1px"></line><line x1="202.5" y1="0" x2="202.5" y2="5" style="visibility: inherit;" fill="rgb(0, 0, 0)" stroke="rgb(204, 204, 204)" stroke-width="1px"></line><line x1="227.8125" y1="0" x2="227.8125" y2="5" style="visibility: inherit;" fill="rgb(0, 0, 0)" stroke="rgb(204, 204, 204)" stroke-width="1px"></line><line x1="253.125" y1="0" x2="253.125" y2="5" style="visibility: inherit;" fill="rgb(0, 0, 0)" stroke="rgb(204, 204, 204)" stroke-width="1px"></line><line x1="278.4375" y1="0" x2="278.4375" y2="5" style="visibility: inherit;" fill="rgb(0, 0, 0)" stroke="rgb(204, 204, 204)" stroke-width="1px"></line></g><g transform="translate(0, 8)"><text x="0" y="0" dx="0em" dy="0.95em" style="text-anchor: middle; visibility: hidden; font-family: Roboto, sans-serif; font-size: 12px; font-weight: 200;" fill="rgb(255, 255, 255)" stroke="none" stroke-width="1px">-10</text><text x="25.3125" y="0" dx="0em" dy="0.95em" style="text-anchor: middle; visibility: inherit; font-family: Roboto, sans-serif; font-size: 12px; font-weight: 200;" fill="rgb(255, 255, 255)" stroke="none" stroke-width="1px">0</text><text x="50.625" y="0" dx="0em" dy="0.95em" style="text-anchor: middle; visibility: inherit; font-family: Roboto, sans-serif; font-size: 12px; font-weight: 200;" fill="rgb(255, 255, 255)" stroke="none" stroke-width="1px">10</text><text x="75.9375" y="0" dx="0em" dy="0.95em" style="text-anchor: middle; visibility: inherit; font-family: Roboto, sans-serif; font-size: 12px; font-weight: 200;" fill="rgb(255, 255, 255)" stroke="none" stroke-width="1px">20</text><text x="101.25" y="0" dx="0em" dy="0.95em" style="text-anchor: middle; visibility: inherit; font-family: Roboto, sans-serif; font-size: 12px; font-weight: 200;" fill="rgb(255, 255, 255)" stroke="none" stroke-width="1px">30</text><text x="126.5625" y="0" dx="0em" dy="0.95em" style="text-anchor: middle; visibility: inherit; font-family: Roboto, sans-serif; font-size: 12px; font-weight: 200;" fill="rgb(255, 255, 255)" stroke="none" stroke-width="1px">40</text><text x="151.875" y="0" dx="0em" dy="0.95em" style="text-anchor: middle; visibility: inherit; font-family: Roboto, sans-serif; font-size: 12px; font-weight: 200;" fill="rgb(255, 255, 255)" stroke="none" stroke-width="1px">50</text><text x="177.1875" y="0" dx="0em" dy="0.95em" style="text-anchor: middle; visibility: inherit; font-family: Roboto, sans-serif; font-size: 12px; font-weight: 200;" fill="rgb(255, 255, 255)" stroke="none" stroke-width="1px">60</text><text x="202.5" y="0" dx="0em" dy="0.95em" style="text-anchor: middle; visibility: inherit; font-family: Roboto, sans-serif; font-size: 12px; font-weight: 200;" fill="rgb(255, 255, 255)" stroke="none" stroke-width="1px">70</text><text x="227.8125" y="0" dx="0em" dy="0.95em" style="text-anchor: middle; visibility: inherit; font-family: Roboto, sans-serif; font-size: 12px; font-weight: 200;" fill="rgb(255, 255, 255)" stroke="none" stroke-width="1px">80</text><text x="253.125" y="0" dx="0em" dy="0.95em" style="text-anchor: middle; visibility: inherit; font-family: Roboto, sans-serif; font-size: 12px; font-weight: 200;" fill="rgb(255, 255, 255)" stroke="none" stroke-width="1px">90</text><text x="278.4375" y="0" dx="0em" dy="0.95em" style="text-anchor: middle; visibility: hidden; font-family: Roboto, sans-serif; font-size: 12px; font-weight: 200;" fill="rgb(255, 255, 255)" stroke="none" stroke-width="1px">100</text></g><line x1="0" y1="0" x2="278.4375" y2="0" fill="rgb(0, 0, 0)" stroke="rgb(204, 204, 204)" stroke-width="1px"></line></g></g></g></g></svg>