<svg viewBox="0 0 330 200" xmlns="http://www.w3.org/2000/svg"><g><g><g><g><g><line x1="41.171875" y1="177" x2="36.171875" y2="177" style="visibility: inherit;" fill="rgb(0, 0, 0)" stroke="rgb(204, 204, 204)" stroke-width="1px"></line><line x1="41.171875" y1="163.3846153846154" x2="36.171875" y2="163.3846153846154" style="visibility: inherit;" fill="rgb(0, 0, 0)" stroke="rgb(204, 204, 204)" stroke-width="1px"></line><line x1="41.171875" y1="149.76923076923077" x2="36.171875" y2="149.76923076923077" style="visibility: inherit;" fill="rgb(0, 0, 0)" stroke="rgb(204, 204, 204)" stroke-width="1px"></line><line x1="41.171875" y1="136.15384615384616" x2="36.171875" y2="136.15384615384616" style="visibility: inherit;" fill="rgb(0, 0, 0)" stroke="rgb(204, 204, 204)" stroke-width="1px"></line><line x1="41.171875" y1="122.53846153846153" x2="36.171875" y2="122.53846153846153" style="visibility: inherit;" fill="rgb(0, 0, 0)" stroke="rgb(204, 204, 204)" stroke-width="1px"></line><line x1="41.171875" y1="108.92307692307693" x2="36.171875" y2="108.92307692307693" style="visibility: inherit;" fill="rgb(0, 0, 0)" stroke="rgb(204, 204, 204)" stroke-width="1px"></line><line x1="41.171875" y1="95.3076923076923" x2="36.171875" y2="95.3076923076923" style="visibility: inherit;" fill="rgb(0, 0, 0)" stroke="rgb(204, 204, 204)" stroke-width="1px"></line><line x1="41.171875" y1="81.6923076923077" x2="36.171875" y2="81.6923076923077" style="visibility: inherit;" fill="rgb(0, 0, 0)" stroke="rgb(204, 204, 204)" stroke-width="1px"></line><line x1="41.171875" y1="68.07692307692307" x2="36.171875" y2="68.07692307692307" style="visibility: inherit;" fill="rgb(0, 0, 0)" stroke="rgb(204, 204, 204)" stroke-width="1px"></line><line x1="41.171875" y1="54.461538461538446" x2="36.171875" y2="54.461538461538446" style="visibility: inherit;" fill="rgb(0, 0, 0)" stroke="rgb(204, 204, 204)" stroke-width="1px"></line><line x1="41.171875" y1="40.84615384615386" x2="36.171875" y2="40.84615384615386" style="visibility: inherit;" fill="rgb(0, 0, 0)" stroke="rgb(204, 204, 204)" stroke-width="1px"></line><line x1="41.171875" y1="27.230769230769234" x2="36.171875" y2="27.230769230769234" style="visibility: inherit;" fill="rgb(0, 0, 0)" stroke="rgb(204, 204, 204)" stroke-width="1px"></line><line x1="41.171875" y1="13.615384615384626" x2="36.171875" y2="13.615384615384626" style="visibility: inherit;" fill="rgb(0, 0, 0)" stroke="rgb(204, 204, 204)" stroke-width="1px"></line><line x1="41.171875" y1="0" x2="36.171875" y2="0" style="visibility: inherit;" fill="rgb(0, 0, 0)" stroke="rgb(204, 204, 204)" stroke-width="1px"></line></g><g transform="translate(31.171875, 0)"><text x="0" y="177" dx="0em" dy="0.3em" style="text-anchor: end; visibility: hidden; font-family: Roboto, sans-serif; font-size: 12px; font-weight: 200;" fill="rgb(255, 255, 255)" stroke="none" stroke-width="1px">0.4</text><text x="0" y="163.3846153846154" dx="0em" dy="0.3em" style="text-anchor: end; visibility: inherit; font-family: Roboto, sans-serif; font-size: 12px; font-weight: 200;" fill="rgb(255, 255, 255)" stroke="none" stroke-width="1px">0.6</text><text x="0" y="149.76923076923077" dx="0em" dy="0.3em" style="text-anchor: end; visibility: hidden; font-family: Roboto, sans-serif; font-size: 12px; font-weight: 200;" fill="rgb(255, 255, 255)" stroke="none" stroke-width="1px">0.8</text><text x="0" y="136.15384615384616" dx="0em" dy="0.3em" style="text-anchor: end; visibility: inherit; font-family: Roboto, sans-serif; font-size: 12px; font-weight: 200;" fill="rgb(255, 255, 255)" stroke="none" stroke-width="1px">1</text><text x="0" y="122.53846153846153" dx="0em" dy="0.3em" style="text-anchor: end; visibility: hidden; font-family: Roboto, sans-serif; font-size: 12px; font-weight: 200;" fill="rgb(255, 255, 255)" stroke="none" stroke-width="1px">1.2</text><text x="0" y="108.92307692307693" dx="0em" dy="0.3em" style="text-anchor: end; visibility: inherit; font-family: Roboto, sans-serif; font-size: 12px; font-weight: 200;" fill="rgb(255, 255, 255)" stroke="none" stroke-width="1px">1.4</text><text x="0" y="95.3076923076923" dx="0em" dy="0.3em" style="text-anchor: end; visibility: hidden; font-family: Roboto, sans-serif; font-size: 12px; font-weight: 200;" fill="rgb(255, 255, 255)" stroke="none" stroke-width="1px">1.6</text><text x="0" y="81.6923076923077" dx="0em" dy="0.3em" style="text-anchor: end; visibility: inherit; font-family: Roboto, sans-serif; font-size: 12px; font-weight: 200;" fill="rgb(255, 255, 255)" stroke="none" stroke-width="1px">1.8</text><text x="0" y="68.07692307692307" dx="0em" dy="0.3em" style="text-anchor: end; visibility: hidden; font-family: Roboto, sans-serif; font-size: 12px; font-weight: 200;" fill="rgb(255, 255, 255)" stroke="none" stroke-width="1px">2</text><text x="0" y="54.461538461538446" dx="0em" dy="0.3em" style="text-anchor: end; visibility: inherit; font-family: Roboto, sans-serif; font-size: 12px; font-weight: 200;" fill="rgb(255, 255, 255)" stroke="none" stroke-width="1px">2.2</text><text x="0" y="40.84615384615386" dx="0em" dy="0.3em" style="text-anchor: end; visibility: hidden; font-family: Roboto, sans-serif; font-size: 12px; font-weight: 200;" fill="rgb(255, 255, 255)" stroke="none" stroke-width="1px">2.4</text><text x="0" y="27.230769230769234" dx="0em" dy="0.3em" style="text-anchor: end; visibility: inherit; font-family: Roboto, sans-serif; font-size: 12px; font-weight: 200;" fill="rgb(255, 255, 255)" stroke="none" stroke-width="1px">2.6</text><text x="0" y="13.615384615384626" dx="0em" dy="0.3em" style="text-anchor: end; visibility: hidden; font-family: Roboto, sans-serif; font-size: 12px; font-weight: 200;" fill="rgb(255, 255, 255)" stroke="none" stroke-width="1px">2.8</text><text x="0" y="0" dx="0em" dy="0.3em" style="text-anchor: end; visibility: hidden; font-family: Roboto, sans-serif; font-size: 12px; font-weight: 200;" fill="rgb(255, 255, 255)" stroke="none" stroke-width="1px">3</text></g><line x1="41.171875" y1="0" x2="41.171875" y2="177" fill="rgb(0, 0, 0)" stroke="rgb(204, 204, 204)" stroke-width="1px"></line></g></g><g transform="translate(41, 0)" clip-path="url(#clip_0)"><clipPath id="clip_0"><rect width="288" height="177"></rect></clipPath><g><g><g><line x1="0" y1="0" x2="0" y2="177" fill="rgb(0, 0, 0)" stroke="rgb(189, 189, 189)" stroke-width="1px" opacity="0.25"></line><line x1="28.8828125" y1="0" x2="28.8828125" y2="177" fill="rgb(0, 0, 0)" stroke="rgb(189, 189, 189)" stroke-width="1px" opacity="0.25"></line><line x1="57.765625" y1="0" x2="57.765625" y2="177" fill="rgb(0, 0, 0)" stroke="rgb(189, 189, 189)" stroke-width="1px" opacity="0.25"></line><line x1="86.6484375" y1="0" x2="86.6484375" y2="177" fill="rgb(0, 0, 0)" stroke="rgb(189, 189, 189)" stroke-width="1px" opacity="0.25"></line><line x1="115.53125" y1="0" x2="115.53125" y2="177" fill="rgb(0, 0, 0)" stroke="rgb(189, 189, 189)" stroke-width="1px" opacity="0.25"></line><line x1="144.4140625" y1="0" x2="144.4140625" y2="177" fill="rgb(0, 0, 0)" stroke="rgb(189, 189, 189)" stroke-width="1px" opacity="0.25"></line><line x1="173.296875" y1="0" x2="173.296875" y2="177" fill="rgb(0, 0, 0)" stroke="rgb(189, 189, 189)" stroke-width="1px" opacity="0.25"></line><line x1="202.1796875" y1="0" x2="202.1796875" y2="177" fill="rgb(0, 0, 0)" stroke="rgb(189, 189, 189)" stroke-width="1px" opacity="0.25"></line><line x1="231.0625" y1="0" x2="231.0625" y2="177" fill="rgb(0, 0, 0)" stroke="rgb(189, 189, 189)" stroke-width="1px" opacity="0.25"></line><line x1="259.9453125" y1="0" x2="259.9453125" y2="177" fill="rgb(0, 0, 0)" stroke="rgb(189, 189, 189)" stroke-width="1px" opacity="0.25"></line><line x1="288.828125" y1="0" x2="288.828125" y2="177" fill="rgb(0, 0, 0)" stroke="rgb(189, 189, 189)" stroke-width="1px" opacity="0.25"></line></g><g><line x1="0" y1="177" x2="288.828125" y2="177" fill="rgb(0, 0, 0)" stroke="rgb(189, 189, 189)" stroke-width="1px" opacity="0.25"></line><line x1="0" y1="163.3846153846154" x2="288.828125" y2="163.3846153846154" fill="rgb(0, 0, 0)" stroke="rgb(189, 189, 189)" stroke-width="1px" opacity="0.25"></line><line x1="0" y1="149.76923076923077" x2="288.828125" y2="149.76923076923077" fill="rgb(0, 0, 0)" stroke="rgb(189, 189, 189)" stroke-width="1px" opacity="0.25"></line><line x1="0" y1="136.15384615384616" x2="288.828125" y2="136.15384615384616" fill="rgb(0, 0, 0)" stroke="rgb(189, 189, 189)" stroke-width="1px" opacity="0.25"></line><line x1="0" y1="122.53846153846153" x2="288.828125" y2="122.53846153846153" fill="rgb(0, 0, 0)" stroke="rgb(189, 189, 189)" stroke-width="1px" opacity="0.25"></line><line x1="0" y1="108.92307692307693" x2="288.828125" y2="108.92307692307693" fill="rgb(0, 0, 0)" stroke="rgb(189, 189, 189)" stroke-width="1px" opacity="0.25"></line><line x1="0" y1="95.3076923076923" x2="288.828125" y2="95.3076923076923" fill="rgb(0, 0, 0)" stroke="rgb(189, 189, 189)" stroke-width="1px" opacity="0.25"></line><line x1="0" y1="81.6923076923077" x2="288.828125" y2="81.6923076923077" fill="rgb(0, 0, 0)" stroke="rgb(189, 189, 189)" stroke-width="1px" opacity="0.25"></line><line x1="0" y1="68.07692307692307" x2="288.828125" y2="68.07692307692307" fill="rgb(0, 0, 0)" stroke="rgb(189, 189, 189)" stroke-width="1px" opacity="0.25"></line><line x1="0" y1="54.461538461538446" x2="288.828125" y2="54.461538461538446" fill="rgb(0, 0, 0)" stroke="rgb(189, 189, 189)" stroke-width="1px" opacity="0.25"></line><line x1="0" y1="40.84615384615386" x2="288.828125" y2="40.84615384615386" fill="rgb(0, 0, 0)" stroke="rgb(189, 189, 189)" stroke-width="1px" opacity="0.25"></line><line x1="0" y1="27.230769230769234" x2="288.828125" y2="27.230769230769234" fill="rgb(0, 0, 0)" stroke="rgb(189, 189, 189)" stroke-width="1px" opacity="0.25"></line><line x1="0" y1="13.615384615384626" x2="288.828125" y2="13.615384615384626" fill="rgb(0, 0, 0)" stroke="rgb(189, 189, 189)" stroke-width="1px" opacity="0.25"></line><line x1="0" y1="0" x2="288.828125" y2="0" fill="rgb(0, 0, 0)" stroke="rgb(189, 189, 189)" stroke-width="1px" opacity="0.25"></line></g></g></g><g><g><line x1="0" y1="204.23076923076923" x2="288.828125" y2="204.23076923076923" fill="rgb(0, 0, 0)" stroke="rgb(153, 153, 153)" stroke-width="1.5px"></line></g></g><g><g><line x1="28.8828125" y1="0" x2="28.8828125" y2="177" fill="rgb(0, 0, 0)" stroke="rgb(153, 153, 153)" stroke-width="1.5px"></line></g></g><g><g><g><g><g><path stroke="rgb(0, 119, 187)" stroke-width="2px" d="M31.77109375,67.32738458193265L34.659375,61.58943043305324L37.54765625,44.04342281575108L40.4359375,43.74434548333223L43.32421875,17.021298005883434L46.2125,38.95703178006542L49.100781250000004,58.48744721289193L51.989062499999996,77.99872831388709L54.87734375,90.42965127342984L57.765625,67.96489545336104L60.65390625,78.2166632345672L63.5421875,92.61955061404967L66.43046875,86.5488270246677L69.31875,82.00153457977264L72.20703125,95.31851772769545L75.0953125,96.50540174866536L77.98359375000001,92.39176490860487L80.871875,99.27863139813171L83.76015625,105.86949808606772L86.6484375,102.6299703188236L89.53671875,111.10581507055515L92.425,109.19787127021499L95.31328125,107.14650992424133L98.20156250000001,109.22350492624732L101.08984375,125.65083433433574L103.97812499999999,115.34163141492485L106.86640625,118.60951524971497L109.7546875,129.4433352288823L112.64296875000001,122.74735339826297L115.53125,125.8153408434716L118.41953124999999,138.63151062654669L121.3078125,126.9898135285521L124.19609375,125.64823019825424L127.084375,144.90907880516983L129.97265625,115.68721939575002L132.8609375,129.51288628298116L135.74921874999998,137.35231598805882L138.6375,136.5927811409594L141.52578125,146.10366128918665L144.4140625,141.35903716346382L147.30234375,132.36848814105196L150.190625,141.19555447920575L153.07890625000002,146.21072383599818L155.96718750000002,146.91032335147023L158.85546875,144.67195142429352L161.74375,152.76059611012244L164.63203124999998,150.35113308228415L167.5203125,154.45169441258287L170.40859375,151.59479246714298L173.296875,158.399321849732" style="fill: none;" fill="none"></path></g><g><path stroke="rgb(204, 51, 17)" stroke-width="2px" d="M31.77109375,34.92240731532757L34.659375,48.12139797669194L37.54765625,35.935598647388595L40.4359375,47.21561174452038L43.32421875,34.71778317936742L46.2125,54.19820421042373L49.100781250000004,68.33438702410008L51.989062499999996,82.40275274491545L54.87734375,90.52423347733401L57.765625,65.90975666394041L60.65390625,64.50327879655244L63.5421875,71.22259154538831L66.43046875,65.6587576520496L69.31875,59.16668676281641L72.20703125,80.37272485725774L75.0953125,76.83822889841193L77.98359375000001,79.86608187494618L80.871875,91.06063805389495L83.76015625,89.87451736330105L86.6484375,98.93055619786311L89.53671875,99.76339155579979L92.425,108.66912473280026L95.31328125,110.86506854622937L98.20156250000001,114.68980455020797L101.08984375,125.27289508406855L103.97812499999999,114.95159245555372L106.86640625,115.07316942064338L109.7546875,120.55927351965954L112.64296875000001,117.92211785080013L115.53125,129.1708102629253L118.41953124999999,144.05364428592475L121.3078125,122.28969093121367L124.19609375,119.48398134123046L127.084375,128.95232541048077L129.97265625,122.69088821233346L132.8609375,132.80210971994447L135.74921874999998,132.73511971016023L138.6375,136.5634792473386L141.52578125,148.60768476998163L144.4140625,147.27778465679162L147.30234375,148.60500534086182L150.190625,156.78320771217233L153.07890625000002,148.49105812478822L155.96718750000002,144.71997711492L158.85546875,142.6385064740133L161.74375,143.9119039025045L164.63203124999998,139.8289992560169L167.5203125,155.1771032169004L170.40859375,152.76067385124207L173.296875,154.5773936132484L176.18515625,147.76771011101013L179.0734375,157.4436312858737L181.96171875,154.89554013324346L184.85,159.29891419028934L187.73828125,161.45385546455338L190.6265625,168.2669975751225L193.51484375,158.7514359818794L196.40312500000002,151.85345400236875L199.29140625,156.8210073045665L202.1796875,157.61375198232702L205.06796874999998,149.92915956014758" style="fill: none;" fill="none"></path></g><g><path stroke="rgb(255, 112, 67)" stroke-width="2px" d="M31.77109375,33.29627559735227L34.659375,27.058909776119084L37.54765625,32.57437584164377L40.4359375,24.771403317335533L43.32421875,16.513566783926326L46.2125,41.013103990572354L49.100781250000004,55.04620814012746L51.989062499999996,68.09364016590105L54.87734375,69.8777588540025L57.765625,68.8701298832956L60.65390625,66.79307309280034L63.5421875,72.4007752296185L66.43046875,69.17874591499555L69.31875,45.443737487175916L72.20703125,57.0743419292124L75.0953125,59.49170431433728L77.98359375000001,66.49238761694549L80.871875,76.37072541439173L83.76015625,86.07260088304253L86.6484375,89.044779864847L89.53671875,85.85841652690478L92.425,90.5600100525387L95.31328125,89.0069275081506L98.20156250000001,76.56477212120441L101.08984375,94.52836892126507L103.97812499999999,79.32575775749349L106.86640625,95.06609711879935L109.7546875,100.80300388136634L112.64296875000001,96.74477511411635L115.53125,105.33406576764501L118.41953124999999,109.78154047770681L121.3078125,98.9888773167858L124.19609375,92.66725836177304L127.084375,113.7710010695887L129.97265625,95.90011349524559L132.8609375,95.08325996183223L135.74921874999998,95.13803539327317L138.6375,105.81613270867227L141.52578125,107.06996746964695L144.4140625,104.06198074112811L147.30234375,96.7725697999848L150.190625,111.55998704775273L153.07890625000002,111.01471830007202L155.96718750000002,97.2089201975517L158.85546875,102.07557647091983L161.74375,94.83667475976954L164.63203124999998,101.08345568156665L167.5203125,107.865613212964L170.40859375,107.83172171116534L173.296875,113.13850199740766L176.18515625,115.56864935724874L179.0734375,119.76907481662262L181.96171875,115.39625077469398L184.85,121.18926012392939L187.73828125,127.1758865990994L190.6265625,132.04369451368885L193.51484375,130.94138964091124L196.40312500000002,110.9552520206163L199.29140625,117.8123558391873L202.1796875,111.92333385938228L205.06796874999998,110.23489880228021L207.95624999999998,110.8047760723333L210.84453125,124.28396653935513L213.7328125,132.14780574279004L216.62109375,117.46726582054016L219.509375,101.99298342596944L222.39765625,109.99500179607546L225.28593750000002,119.48485040487941L228.17421875000002,123.39440024343237L231.0625,130.5278860027113L233.95078125,121.46343301089334L236.83906249999998,126.13690873043926L239.72734375,128.99651000167015L242.615625,128.30590810246017L245.50390625,123.77043239715817L248.3921875,112.28624016585746L251.28046875,103.31673422091576L254.16875,99.17389540591326L257.05703125,100.41140204821195L259.9453125,101.51358063404571L262.83359375000003,114.5794057846081L265.721875,118.11232665868977L268.61015625,122.385104975334L271.49843749999997,129.0199670725605" style="fill: none;" fill="none"></path></g></g></g></g><g opacity="0.2"><g><g><g><path stroke="rgb(0, 119, 187)" stroke-width="2px" d="M31.77109375,67.32738458193265L34.659375,58.146657943725586L37.54765625,27.199255503140954L40.4359375,43.39263054040761L43.32421875,-17.86831278067368L46.2125,69.30204845391786L49.100781250000004,86.41625376848073L51.989062499999996,106.44636346743657L54.87734375,108.7628480562797L57.765625,34.60735119306125L60.65390625,93.50133212713095L63.5421875,114.14550180618579L66.43046875,77.46256360640892L69.31875,75.18950453171364L72.20703125,115.27833883578963L75.0953125,98.28489069755261L77.98359375000001,86.22305040176099L80.871875,109.60718255776627L83.76015625,115.75479406576889L86.6484375,97.77097477362706L89.53671875,123.81911736268265L92.425,106.33601835140816L95.31328125,104.06950840583214L98.20156250000001,112.33897282527045L101.08984375,150.2917116880417L103.97812499999999,99.87787099984976L106.86640625,123.5113326402811L109.7546875,145.69404856516766L112.64296875000001,112.70338682027963L115.53125,130.41732031565445L118.41953124999999,157.85576105117798L121.3078125,109.52727019786835L124.19609375,123.63585536296551L127.084375,173.8003503359281L129.97265625,71.85443153748146L132.8609375,150.25138625731836L135.74921874999998,149.11146042438654L138.6375,135.453478877361L141.52578125,160.36998145855392L144.4140625,134.24210099073557L147.30234375,118.88266462546127L150.190625,154.43615397581686L153.07890625000002,153.73347786756662L155.96718750000002,147.95972262437527L158.85546875,141.31439353411014L161.74375,164.89356313760464L164.63203124999998,146.7369385407521L167.5203125,160.6025364078008L170.40859375,147.30943954907931L173.296875,168.60611592347806" style="fill: none;" fill="none"></path></g><g><path stroke="rgb(204, 51, 17)" stroke-width="2px" d="M31.77109375,34.92240731532757L34.659375,56.04079237351051L37.54765625,24.23723129125741L40.4359375,60.48090714674729L43.32421875,18.400618204703704L46.2125,81.14663944794582L49.100781250000004,88.54935462658221L51.989062499999996,102.91456502217514L54.87734375,102.50184004123395L57.765625,29.360127265636745L60.65390625,62.40631864621089L63.5421875,81.26499446538777L66.43046875,57.331173695050744L69.31875,49.44129907167874L72.20703125,112.15685509718382L75.0953125,71.53897776053502L77.98359375000001,84.40658005384297L80.871875,107.84963002571693L83.76015625,88.09551702095912L86.6484375,112.51378669188574L89.53671875,101.01259891803448L92.425,122.02743145135733L95.31328125,114.15894091129303L98.20156250000001,120.42686324853165L101.08984375,141.14745566478143L103.97812499999999,99.46968252842242L106.86640625,115.25553455719582L109.7546875,128.78842124572168L112.64296875000001,113.96638677670406L115.53125,146.04384266413177L118.41953124999999,166.37789038511423L121.3078125,89.64376522944524L124.19609375,115.27541729120108L127.084375,143.15484083615817L129.97265625,113.29873268420882L132.8609375,147.96894172063242L135.74921874999998,132.6346346965203L138.6375,142.30601851756757L141.52578125,166.6739929868625L144.4140625,145.28293449145096L147.30234375,150.59583636430594L150.190625,169.05051125929904L153.07890625000002,136.05283374969775L155.96718750000002,139.06335560175089L158.85546875,139.51630051319415L161.74375,145.82200004504276L164.63203124999998,133.70464228666748L167.5203125,178.1992591573642L170.40859375,149.1360298028359L173.296875,157.3024732562212L176.18515625,137.5531848577353L179.0734375,171.95751304809863L181.96171875,151.0734034043092L184.85,165.90397527584662L187.73828125,164.68626737594604L190.6265625,178.48671074096973L193.51484375,144.47809359202017L196.40312500000002,141.50648103310513L199.29140625,164.2723372578621L202.1796875,158.80286899896768L205.06796874999998,138.402270926879" style="fill: none;" fill="none"></path></g><g><path stroke="rgb(255, 112, 67)" stroke-width="2px" d="M31.77109375,33.29627559735225L34.659375,23.31649028337918L37.54765625,37.8692232645475L40.4359375,15.595107628748968L43.32421875,5.732135405907257L46.2125,74.90478378075821L49.100781250000004,75.11377160365765L51.989062499999996,87.11692131482637L54.87734375,72.50898737173813L57.765625,67.37391829490662L60.65390625,63.69632665927593L63.5421875,80.78181156745323L66.43046875,64.35622242780832L69.31875,9.887724197827843L72.20703125,74.50657725334167L75.0953125,63.116042980780975L77.98359375000001,76.99045011630425L80.871875,91.18572400166437L83.76015625,100.62393610294049L86.6484375,93.50277666862195L89.53671875,81.07904626772954L92.425,97.61224563305194L95.31328125,86.677334354474L98.20156250000001,57.90168642997742L101.08984375,121.47363644379837L103.97812499999999,56.521905844028176L106.86640625,118.67656588554382L109.7546875,109.40835521771358L112.64296875000001,90.6574357014436L115.53125,118.21799700076765L118.41953124999999,116.45275106796852L121.3078125,82.79988472278302L124.19609375,83.18483068392827L127.084375,145.42661361969436L129.97265625,69.09378290176392L132.8609375,93.85797968277565L135.74921874999998,95.22019853958717L138.6375,121.8332785826463L141.52578125,108.9507196041254L144.4140625,99.55000065840207L147.30234375,85.83845340288602L150.190625,133.74111290161426L153.07890625000002,110.19681517894453L155.96718750000002,76.50022304975069L158.85546875,109.37556087970734L161.74375,83.97832219417279L164.63203124999998,110.45362706367786L167.5203125,118.03884950967935L170.40859375,107.78088445846849L173.296875,121.09867242666391L176.18515625,119.21387039698088L179.0734375,126.0697130056528L181.96171875,108.83701471182016L184.85,129.8787741477673L187.73828125,136.15582631184506L190.6265625,139.34540638556848L193.51484375,129.28793233174545L196.40312500000002,80.97604559018062L199.29140625,128.09801156704242L202.1796875,103.08980088967544L205.06796874999998,107.70224621662727L207.95624999999998,111.65959197741287L210.84453125,144.50275223988754L213.7328125,143.94356454794223L216.62109375,95.44645593716547L219.509375,78.78155983411348L222.39765625,121.99802935123444L225.28593750000002,133.71962331808533L228.17421875000002,129.25872500126178L231.0625,141.22811464162973L233.95078125,107.86675352316635L236.83906249999998,133.14712230975812L239.72734375,133.28591190851654L242.615625,127.2700052536451L245.50390625,116.96721883920523L248.3921875,95.05995181890634L251.28046875,89.86247530350319L254.16875,92.95963718340947L257.05703125,102.26766201166006L259.9453125,103.16684851279625L262.83359375000003,134.1781435104517L265.721875,123.41170796981224L268.61015625,128.79427245030035L271.49843749999997,138.97226021840024" style="fill: none;" fill="none"></path></g></g></g></g></g></g><g transform="translate(41, 177)" clip-path="url(#clip_1)"><clipPath id="clip_1"><rect width="288" height="23"></rect></clipPath><g><g><line x1="0" y1="0" x2="0" y2="5" style="visibility: inherit;" fill="rgb(0, 0, 0)" stroke="rgb(204, 204, 204)" stroke-width="1px"></line><line x1="28.8828125" y1="0" x2="28.8828125" y2="5" style="visibility: inherit;" fill="rgb(0, 0, 0)" stroke="rgb(204, 204, 204)" stroke-width="1px"></line><line x1="57.765625" y1="0" x2="57.765625" y2="5" style="visibility: inherit;" fill="rgb(0, 0, 0)" stroke="rgb(204, 204, 204)" stroke-width="1px"></line><line x1="86.6484375" y1="0" x2="86.6484375" y2="5" style="visibility: inherit;" fill="rgb(0, 0, 0)" stroke="rgb(204, 204, 204)" stroke-width="1px"></line><line x1="115.53125" y1="0" x2="115.53125" y2="5" style="visibility: inherit;" fill="rgb(0, 0, 0)" stroke="rgb(204, 204, 204)" stroke-width="1px"></line><line x1="144.4140625" y1="0" x2="144.4140625" y2="5" style="visibility: inherit;" fill="rgb(0, 0, 0)" stroke="rgb(204, 204, 204)" stroke-width="1px"></line><line x1="173.296875" y1="0" x2="173.296875" y2="5" style="visibility: inherit;" fill="rgb(0, 0, 0)" stroke="rgb(204, 204, 204)" stroke-width="1px"></line><line x1="202.1796875" y1="0" x2="202.1796875" y2="5" style="visibility: inherit;" fill="rgb(0, 0, 0)" stroke="rgb(204, 204, 204)" stroke-width="1px"></line><line x1="231.0625" y1="0" x2="231.0625" y2="5" style="visibility: inherit;" fill="rgb(0, 0, 0)" stroke="rgb(204, 204, 204)" stroke-width="1px"></line><line x1="259.9453125" y1="0" x2="259.9453125" y2="5" style="visibility: inherit;" fill="rgb(0, 0, 0)" stroke="rgb(204, 204, 204)" stroke-width="1px"></line><line x1="288.828125" y1="0" x2="288.828125" y2="5" style="visibility: inherit;" fill="rgb(0, 0, 0)" stroke="rgb(204, 204, 204)" stroke-width="1px"></line></g><g transform="translate(0, 8)"><text x="0" y="0" dx="0em" dy="0.95em" style="text-anchor: middle; visibility: hidden; font-family: Roboto, sans-serif; font-size: 12px; font-weight: 200;" fill="rgb(255, 255, 255)" stroke="none" stroke-width="1px">-1k</text><text x="28.8828125" y="0" dx="0em" dy="0.95em" style="text-anchor: middle; visibility: inherit; font-family: Roboto, sans-serif; font-size: 12px; font-weight: 200;" fill="rgb(255, 255, 255)" stroke="none" stroke-width="1px">0</text><text x="57.765625" y="0" dx="0em" dy="0.95em" style="text-anchor: middle; visibility: inherit; font-family: Roboto, sans-serif; font-size: 12px; font-weight: 200;" fill="rgb(255, 255, 255)" stroke="none" stroke-width="1px">1k</text><text x="86.6484375" y="0" dx="0em" dy="0.95em" style="text-anchor: middle; visibility: inherit; font-family: Roboto, sans-serif; font-size: 12px; font-weight: 200;" fill="rgb(255, 255, 255)" stroke="none" stroke-width="1px">2k</text><text x="115.53125" y="0" dx="0em" dy="0.95em" style="text-anchor: middle; visibility: inherit; font-family: Roboto, sans-serif; font-size: 12px; font-weight: 200;" fill="rgb(255, 255, 255)" stroke="none" stroke-width="1px">3k</text><text x="144.4140625" y="0" dx="0em" dy="0.95em" style="text-anchor: middle; visibility: inherit; font-family: Roboto, sans-serif; font-size: 12px; font-weight: 200;" fill="rgb(255, 255, 255)" stroke="none" stroke-width="1px">4k</text><text x="173.296875" y="0" dx="0em" dy="0.95em" style="text-anchor: middle; visibility: inherit; font-family: Roboto, sans-serif; font-size: 12px; font-weight: 200;" fill="rgb(255, 255, 255)" stroke="none" stroke-width="1px">5k</text><text x="202.1796875" y="0" dx="0em" dy="0.95em" style="text-anchor: middle; visibility: inherit; font-family: Roboto, sans-serif; font-size: 12px; font-weight: 200;" fill="rgb(255, 255, 255)" stroke="none" stroke-width="1px">6k</text><text x="231.0625" y="0" dx="0em" dy="0.95em" style="text-anchor: middle; visibility: inherit; font-family: Roboto, sans-serif; font-size: 12px; font-weight: 200;" fill="rgb(255, 255, 255)" stroke="none" stroke-width="1px">7k</text><text x="259.9453125" y="0" dx="0em" dy="0.95em" style="text-anchor: middle; visibility: inherit; font-family: Roboto, sans-serif; font-size: 12px; font-weight: 200;" fill="rgb(255, 255, 255)" stroke="none" stroke-width="1px">8k</text><text x="288.828125" y="0" dx="0em" dy="0.95em" style="text-anchor: middle; visibility: hidden; font-family: Roboto, sans-serif; font-size: 12px; font-weight: 200;" fill="rgb(255, 255, 255)" stroke="none" stroke-width="1px">9k</text></g><line x1="0" y1="0" x2="288.828125" y2="0" fill="rgb(0, 0, 0)" stroke="rgb(204, 204, 204)" stroke-width="1px"></line></g></g></g></g></svg>